<?xml version="1.0" standalone="no"?>
<svg xmlns:xlink="http://www.w3.org/1999/xlink" id="wave" style="transform:rotate(180deg); transition: 0.3s" viewBox="0 0 1440 150" version="1.1" xmlns="http://www.w3.org/2000/svg"><defs><linearGradient id="sw-gradient-0" x1="0" x2="0" y1="1" y2="0"><stop stop-color="rgba(255, 255, 255, 1)" offset="0%"/><stop stop-color="rgba(242, 180, 211, 1)" offset="100%"/></linearGradient></defs><path style="transform:translate(0, 0px); opacity:1" fill="url(#sw-gradient-0)" d="M0,120L80,120C160,120,320,120,480,100C640,80,800,40,960,20C1120,0,1280,0,1440,10C1600,20,1760,40,1920,40C2080,40,2240,20,2400,15C2560,10,2720,20,2880,27.5C3040,35,3200,40,3360,40C3520,40,3680,35,3840,32.5C4000,30,4160,30,4320,27.5C4480,25,4640,20,4800,20C4960,20,5120,25,5280,22.5C5440,20,5600,10,5760,25C5920,40,6080,80,6240,90C6400,100,6560,80,6720,77.5C6880,75,7040,90,7200,102.5C7360,115,7520,125,7680,117.5C7840,110,8000,85,8160,67.5C8320,50,8480,40,8640,32.5C8800,25,8960,20,9120,22.5C9280,25,9440,35,9600,40C9760,45,9920,45,10080,45C10240,45,10400,45,10560,50C10720,55,10880,65,11040,62.5C11200,60,11360,45,11440,37.5L11520,30L11520,150L11440,150C11360,150,11200,150,11040,150C10880,150,10720,150,10560,150C10400,150,10240,150,10080,150C9920,150,9760,150,9600,150C9440,150,9280,150,9120,150C8960,150,8800,150,8640,150C8480,150,8320,150,8160,150C8000,150,7840,150,7680,150C7520,150,7360,150,7200,150C7040,150,6880,150,6720,150C6560,150,6400,150,6240,150C6080,150,5920,150,5760,150C5600,150,5440,150,5280,150C5120,150,4960,150,4800,150C4640,150,4480,150,4320,150C4160,150,4000,150,3840,150C3680,150,3520,150,3360,150C3200,150,3040,150,2880,150C2720,150,2560,150,2400,150C2240,150,2080,150,1920,150C1760,150,1600,150,1440,150C1280,150,1120,150,960,150C800,150,640,150,480,150C320,150,160,150,80,150L0,150Z"/><defs><linearGradient id="sw-gradient-1" x1="0" x2="0" y1="1" y2="0"><stop stop-color="rgba(47, 136, 192, 1)" offset="0%"/><stop stop-color="rgba(255, 255, 255, 1)" offset="100%"/></linearGradient></defs><path style="transform:translate(0, 50px); opacity:0.9" fill="url(#sw-gradient-1)" d="M0,60L80,50C160,40,320,20,480,22.5C640,25,800,50,960,67.5C1120,85,1280,95,1440,95C1600,95,1760,85,1920,70C2080,55,2240,35,2400,27.5C2560,20,2720,25,2880,42.5C3040,60,3200,90,3360,102.5C3520,115,3680,110,3840,107.5C4000,105,4160,105,4320,87.5C4480,70,4640,35,4800,27.5C4960,20,5120,40,5280,40C5440,40,5600,20,5760,30C5920,40,6080,80,6240,90C6400,100,6560,80,6720,65C6880,50,7040,40,7200,40C7360,40,7520,50,7680,57.5C7840,65,8000,70,8160,75C8320,80,8480,85,8640,92.5C8800,100,8960,110,9120,117.5C9280,125,9440,130,9600,132.5C9760,135,9920,135,10080,120C10240,105,10400,75,10560,72.5C10720,70,10880,95,11040,95C11200,95,11360,70,11440,57.5L11520,45L11520,150L11440,150C11360,150,11200,150,11040,150C10880,150,10720,150,10560,150C10400,150,10240,150,10080,150C9920,150,9760,150,9600,150C9440,150,9280,150,9120,150C8960,150,8800,150,8640,150C8480,150,8320,150,8160,150C8000,150,7840,150,7680,150C7520,150,7360,150,7200,150C7040,150,6880,150,6720,150C6560,150,6400,150,6240,150C6080,150,5920,150,5760,150C5600,150,5440,150,5280,150C5120,150,4960,150,4800,150C4640,150,4480,150,4320,150C4160,150,4000,150,3840,150C3680,150,3520,150,3360,150C3200,150,3040,150,2880,150C2720,150,2560,150,2400,150C2240,150,2080,150,1920,150C1760,150,1600,150,1440,150C1280,150,1120,150,960,150C800,150,640,150,480,150C320,150,160,150,80,150L0,150Z"/><defs><linearGradient id="sw-gradient-2" x1="0" x2="0" y1="1" y2="0"><stop stop-color="rgba(255, 255, 255, 1)" offset="0%"/><stop stop-color="rgba(42, 77, 127, 1)" offset="100%"/></linearGradient></defs><path style="transform:translate(0, 100px); opacity:0.8" fill="url(#sw-gradient-2)" d="M0,90L80,82.5C160,75,320,60,480,45C640,30,800,15,960,10C1120,5,1280,10,1440,30C1600,50,1760,85,1920,100C2080,115,2240,110,2400,92.5C2560,75,2720,45,2880,37.5C3040,30,3200,45,3360,60C3520,75,3680,90,3840,95C4000,100,4160,95,4320,90C4480,85,4640,80,4800,67.5C4960,55,5120,35,5280,45C5440,55,5600,95,5760,105C5920,115,6080,95,6240,90C6400,85,6560,95,6720,95C6880,95,7040,85,7200,77.5C7360,70,7520,65,7680,75C7840,85,8000,110,8160,120C8320,130,8480,125,8640,120C8800,115,8960,110,9120,110C9280,110,9440,115,9600,115C9760,115,9920,110,10080,100C10240,90,10400,75,10560,72.5C10720,70,10880,80,11040,77.5C11200,75,11360,60,11440,52.5L11520,45L11520,150L11440,150C11360,150,11200,150,11040,150C10880,150,10720,150,10560,150C10400,150,10240,150,10080,150C9920,150,9760,150,9600,150C9440,150,9280,150,9120,150C8960,150,8800,150,8640,150C8480,150,8320,150,8160,150C8000,150,7840,150,7680,150C7520,150,7360,150,7200,150C7040,150,6880,150,6720,150C6560,150,6400,150,6240,150C6080,150,5920,150,5760,150C5600,150,5440,150,5280,150C5120,150,4960,150,4800,150C4640,150,4480,150,4320,150C4160,150,4000,150,3840,150C3680,150,3520,150,3360,150C3200,150,3040,150,2880,150C2720,150,2560,150,2400,150C2240,150,2080,150,1920,150C1760,150,1600,150,1440,150C1280,150,1120,150,960,150C800,150,640,150,480,150C320,150,160,150,80,150L0,150Z"/></svg>