<svg xmlns="http://www.w3.org/2000/svg" version="1.1" xmlns:xlink="http://www.w3.org/1999/xlink" xmlns:svgjs="http://svgjs.dev/svgjs" viewBox="0 0 2400 800" opacity="1"><defs><linearGradient x1="50%" y1="0%" x2="50%" y2="100%" id="sssurf-grad"><stop stop-color="hsla(212, 72%, 59%, 1.00)" stop-opacity="1" offset="0%"></stop><stop stop-color="hsla(335, 95%, 53%, 1.00)" stop-opacity="1" offset="100%"></stop></linearGradient></defs><g fill="url(#sssurf-grad)" transform="matrix(1,0,0,1,-10.4755859375,-433.7176818847656)"><path d="M-10,10C242.08333333333331,43.333333333333336,697.9166666666666,188.125,1200,170C1702.0833333333335,151.875,2097.9166666666665,-124.91666666666667,2400,-77C2702.0833333333335,-29.08333333333333,3254.1666666666665,196.45833333333331,2650,400C2045.8333333333335,603.5416666666667,156.25,795.8333333333334,-500,900" transform="matrix(1,0,0,1,0,150)" opacity="0.05"></path><path d="M-10,10C242.08333333333331,43.333333333333336,697.9166666666666,188.125,1200,170C1702.0833333333335,151.875,2097.9166666666665,-124.91666666666667,2400,-77C2702.0833333333335,-29.08333333333333,3254.1666666666665,196.45833333333331,2650,400C2045.8333333333335,603.5416666666667,156.25,795.8333333333334,-500,900" transform="matrix(1,0,0,1,0,300)" opacity="0.16"></path><path d="M-10,10C242.08333333333331,43.333333333333336,697.9166666666666,188.125,1200,170C1702.0833333333335,151.875,2097.9166666666665,-124.91666666666667,2400,-77C2702.0833333333335,-29.08333333333333,3254.1666666666665,196.45833333333331,2650,400C2045.8333333333335,603.5416666666667,156.25,795.8333333333334,-500,900" transform="matrix(1,0,0,1,0,450)" opacity="0.26"></path><path d="M-10,10C242.08333333333331,43.333333333333336,697.9166666666666,188.125,1200,170C1702.0833333333335,151.875,2097.9166666666665,-124.91666666666667,2400,-77C2702.0833333333335,-29.08333333333333,3254.1666666666665,196.45833333333331,2650,400C2045.8333333333335,603.5416666666667,156.25,795.8333333333334,-500,900" transform="matrix(1,0,0,1,0,600)" opacity="0.37"></path><path d="M-10,10C242.08333333333331,43.333333333333336,697.9166666666666,188.125,1200,170C1702.0833333333335,151.875,2097.9166666666665,-124.91666666666667,2400,-77C2702.0833333333335,-29.08333333333333,3254.1666666666665,196.45833333333331,2650,400C2045.8333333333335,603.5416666666667,156.25,795.8333333333334,-500,900" transform="matrix(1,0,0,1,0,750)" opacity="0.47"></path><path d="M-10,10C242.08333333333331,43.333333333333336,697.9166666666666,188.125,1200,170C1702.0833333333335,151.875,2097.9166666666665,-124.91666666666667,2400,-77C2702.0833333333335,-29.08333333333333,3254.1666666666665,196.45833333333331,2650,400C2045.8333333333335,603.5416666666667,156.25,795.8333333333334,-500,900" transform="matrix(1,0,0,1,0,900)" opacity="0.58"></path><path d="M-10,10C242.08333333333331,43.333333333333336,697.9166666666666,188.125,1200,170C1702.0833333333335,151.875,2097.9166666666665,-124.91666666666667,2400,-77C2702.0833333333335,-29.08333333333333,3254.1666666666665,196.45833333333331,2650,400C2045.8333333333335,603.5416666666667,156.25,795.8333333333334,-500,900" transform="matrix(1,0,0,1,0,1050)" opacity="0.68"></path><path d="M-10,10C242.08333333333331,43.333333333333336,697.9166666666666,188.125,1200,170C1702.0833333333335,151.875,2097.9166666666665,-124.91666666666667,2400,-77C2702.0833333333335,-29.08333333333333,3254.1666666666665,196.45833333333331,2650,400C2045.8333333333335,603.5416666666667,156.25,795.8333333333334,-500,900" transform="matrix(1,0,0,1,0,1200)" opacity="0.79"></path><path d="M-10,10C242.08333333333331,43.333333333333336,697.9166666666666,188.125,1200,170C1702.0833333333335,151.875,2097.9166666666665,-124.91666666666667,2400,-77C2702.0833333333335,-29.08333333333333,3254.1666666666665,196.45833333333331,2650,400C2045.8333333333335,603.5416666666667,156.25,795.8333333333334,-500,900" transform="matrix(1,0,0,1,0,1350)" opacity="0.89"></path><path d="M-10,10C242.08333333333331,43.333333333333336,697.9166666666666,188.125,1200,170C1702.0833333333335,151.875,2097.9166666666665,-124.91666666666667,2400,-77C2702.0833333333335,-29.08333333333333,3254.1666666666665,196.45833333333331,2650,400C2045.8333333333335,603.5416666666667,156.25,795.8333333333334,-500,900" transform="matrix(1,0,0,1,0,1500)" opacity="1.00"></path></g></svg>