<svg xmlns="http://www.w3.org/2000/svg" version="1.1" xmlns:xlink="http://www.w3.org/1999/xlink" xmlns:svgjs="http://svgjs.dev/svgjs" viewBox="0 0 2400 800" opacity="1"><defs><linearGradient x1="50%" y1="0%" x2="50%" y2="100%" id="sssurf-grad"><stop stop-color="#fde0f4" stop-opacity="1" offset="0%"></stop><stop stop-color="#388FC8" stop-opacity="1" offset="100%"></stop></linearGradient></defs><g fill="url(#sssurf-grad)" transform="matrix(1,0,0,1,-10.4755859375,-96.10784912109375)"><path d="M-10,10C242.08333333333331,47.291666666666664,697.9166666666666,223.16666666666666,1200,189C1702.0833333333335,154.83333333333334,2097.9166666666665,-197.95833333333331,2400,-154C2702.0833333333335,-110.04166666666667,3254.1666666666665,180.41666666666669,2650,400C2045.8333333333335,619.5833333333333,156.25,795.8333333333334,-500,900" transform="matrix(1,0,0,1,0,150)" opacity="0.05"></path><path d="M-10,10C242.08333333333331,47.291666666666664,697.9166666666666,223.16666666666666,1200,189C1702.0833333333335,154.83333333333334,2097.9166666666665,-197.95833333333331,2400,-154C2702.0833333333335,-110.04166666666667,3254.1666666666665,180.41666666666669,2650,400C2045.8333333333335,619.5833333333333,156.25,795.8333333333334,-500,900" transform="matrix(1,0,0,1,0,300)" opacity="0.24"></path><path d="M-10,10C242.08333333333331,47.291666666666664,697.9166666666666,223.16666666666666,1200,189C1702.0833333333335,154.83333333333334,2097.9166666666665,-197.95833333333331,2400,-154C2702.0833333333335,-110.04166666666667,3254.1666666666665,180.41666666666669,2650,400C2045.8333333333335,619.5833333333333,156.25,795.8333333333334,-500,900" transform="matrix(1,0,0,1,0,450)" opacity="0.43"></path><path d="M-10,10C242.08333333333331,47.291666666666664,697.9166666666666,223.16666666666666,1200,189C1702.0833333333335,154.83333333333334,2097.9166666666665,-197.95833333333331,2400,-154C2702.0833333333335,-110.04166666666667,3254.1666666666665,180.41666666666669,2650,400C2045.8333333333335,619.5833333333333,156.25,795.8333333333334,-500,900" transform="matrix(1,0,0,1,0,600)" opacity="0.62"></path><path d="M-10,10C242.08333333333331,47.291666666666664,697.9166666666666,223.16666666666666,1200,189C1702.0833333333335,154.83333333333334,2097.9166666666665,-197.95833333333331,2400,-154C2702.0833333333335,-110.04166666666667,3254.1666666666665,180.41666666666669,2650,400C2045.8333333333335,619.5833333333333,156.25,795.8333333333334,-500,900" transform="matrix(1,0,0,1,0,750)" opacity="0.81"></path><path d="M-10,10C242.08333333333331,47.291666666666664,697.9166666666666,223.16666666666666,1200,189C1702.0833333333335,154.83333333333334,2097.9166666666665,-197.95833333333331,2400,-154C2702.0833333333335,-110.04166666666667,3254.1666666666665,180.41666666666669,2650,400C2045.8333333333335,619.5833333333333,156.25,795.8333333333334,-500,900" transform="matrix(1,0,0,1,0,900)" opacity="1.00"></path></g></svg>