<svg xmlns="http://www.w3.org/2000/svg" version="1.1" xmlns:xlink="http://www.w3.org/1999/xlink" xmlns:svgjs="http://svgjs.dev/svgjs" viewBox="0 0 2400 800" opacity="1"><defs><linearGradient x1="50%" y1="0%" x2="50%" y2="100%" id="sssurf-grad"><stop stop-color="#2e5790" stop-opacity="1" offset="0%"></stop><stop stop-color="#388FC8" stop-opacity="1" offset="100%"></stop></linearGradient></defs><g fill="url(#sssurf-grad)" transform="matrix(1,0,0,1,-10.4755859375,-407.1715393066406)"><path d="M-10,10C242.08333333333331,26.458333333333332,697.9166666666666,117.125,1200,89C1702.0833333333335,60.875,2097.9166666666665,-189.79166666666669,2400,-125C2702.0833333333335,-60.20833333333333,3254.1666666666665,186.45833333333331,2650,400C2045.8333333333335,613.5416666666667,156.25,795.8333333333334,-500,900" transform="matrix(1,0,0,1,0,150)" opacity="0.05"></path><path d="M-10,10C242.08333333333331,26.458333333333332,697.9166666666666,117.125,1200,89C1702.0833333333335,60.875,2097.9166666666665,-189.79166666666669,2400,-125C2702.0833333333335,-60.20833333333333,3254.1666666666665,186.45833333333331,2650,400C2045.8333333333335,613.5416666666667,156.25,795.8333333333334,-500,900" transform="matrix(1,0,0,1,0,300)" opacity="0.16"></path><path d="M-10,10C242.08333333333331,26.458333333333332,697.9166666666666,117.125,1200,89C1702.0833333333335,60.875,2097.9166666666665,-189.79166666666669,2400,-125C2702.0833333333335,-60.20833333333333,3254.1666666666665,186.45833333333331,2650,400C2045.8333333333335,613.5416666666667,156.25,795.8333333333334,-500,900" transform="matrix(1,0,0,1,0,450)" opacity="0.26"></path><path d="M-10,10C242.08333333333331,26.458333333333332,697.9166666666666,117.125,1200,89C1702.0833333333335,60.875,2097.9166666666665,-189.79166666666669,2400,-125C2702.0833333333335,-60.20833333333333,3254.1666666666665,186.45833333333331,2650,400C2045.8333333333335,613.5416666666667,156.25,795.8333333333334,-500,900" transform="matrix(1,0,0,1,0,600)" opacity="0.37"></path><path d="M-10,10C242.08333333333331,26.458333333333332,697.9166666666666,117.125,1200,89C1702.0833333333335,60.875,2097.9166666666665,-189.79166666666669,2400,-125C2702.0833333333335,-60.20833333333333,3254.1666666666665,186.45833333333331,2650,400C2045.8333333333335,613.5416666666667,156.25,795.8333333333334,-500,900" transform="matrix(1,0,0,1,0,750)" opacity="0.47"></path><path d="M-10,10C242.08333333333331,26.458333333333332,697.9166666666666,117.125,1200,89C1702.0833333333335,60.875,2097.9166666666665,-189.79166666666669,2400,-125C2702.0833333333335,-60.20833333333333,3254.1666666666665,186.45833333333331,2650,400C2045.8333333333335,613.5416666666667,156.25,795.8333333333334,-500,900" transform="matrix(1,0,0,1,0,900)" opacity="0.58"></path><path d="M-10,10C242.08333333333331,26.458333333333332,697.9166666666666,117.125,1200,89C1702.0833333333335,60.875,2097.9166666666665,-189.79166666666669,2400,-125C2702.0833333333335,-60.20833333333333,3254.1666666666665,186.45833333333331,2650,400C2045.8333333333335,613.5416666666667,156.25,795.8333333333334,-500,900" transform="matrix(1,0,0,1,0,1050)" opacity="0.68"></path><path d="M-10,10C242.08333333333331,26.458333333333332,697.9166666666666,117.125,1200,89C1702.0833333333335,60.875,2097.9166666666665,-189.79166666666669,2400,-125C2702.0833333333335,-60.20833333333333,3254.1666666666665,186.45833333333331,2650,400C2045.8333333333335,613.5416666666667,156.25,795.8333333333334,-500,900" transform="matrix(1,0,0,1,0,1200)" opacity="0.79"></path><path d="M-10,10C242.08333333333331,26.458333333333332,697.9166666666666,117.125,1200,89C1702.0833333333335,60.875,2097.9166666666665,-189.79166666666669,2400,-125C2702.0833333333335,-60.20833333333333,3254.1666666666665,186.45833333333331,2650,400C2045.8333333333335,613.5416666666667,156.25,795.8333333333334,-500,900" transform="matrix(1,0,0,1,0,1350)" opacity="0.89"></path><path d="M-10,10C242.08333333333331,26.458333333333332,697.9166666666666,117.125,1200,89C1702.0833333333335,60.875,2097.9166666666665,-189.79166666666669,2400,-125C2702.0833333333335,-60.20833333333333,3254.1666666666665,186.45833333333331,2650,400C2045.8333333333335,613.5416666666667,156.25,795.8333333333334,-500,900" transform="matrix(1,0,0,1,0,1500)" opacity="1.00"></path></g></svg>