<svg xmlns="http://www.w3.org/2000/svg" version="1.1" xmlns:xlink="http://www.w3.org/1999/xlink" xmlns:svgjs="http://svgjs.dev/svgjs" viewBox="0 0 2400 800" opacity="1"><defs><linearGradient x1="50%" y1="0%" x2="50%" y2="100%" id="sssurf-grad"><stop stop-color="#2e5790" stop-opacity="1" offset="0%"></stop><stop stop-color="#FCD7F1" stop-opacity="1" offset="100%"></stop></linearGradient></defs><g fill="url(#sssurf-grad)" transform="matrix(1,0,0,1,-10.4755859375,81.80557250976562)"><path d="M-10,10C242.08333333333331,24.166666666666668,697.9166666666666,122.58333333333333,1200,78C1702.0833333333335,33.41666666666667,2097.9166666666665,-271.0833333333333,2400,-204C2702.0833333333335,-136.91666666666669,3254.1666666666665,170,2650,400C2045.8333333333335,630,156.25,795.8333333333334,-500,900" transform="matrix(1,0,0,1,0,150)" opacity="0.05"></path><path d="M-10,10C242.08333333333331,24.166666666666668,697.9166666666666,122.58333333333333,1200,78C1702.0833333333335,33.41666666666667,2097.9166666666665,-271.0833333333333,2400,-204C2702.0833333333335,-136.91666666666669,3254.1666666666665,170,2650,400C2045.8333333333335,630,156.25,795.8333333333334,-500,900" transform="matrix(1,0,0,1,0,300)" opacity="0.37"></path><path d="M-10,10C242.08333333333331,24.166666666666668,697.9166666666666,122.58333333333333,1200,78C1702.0833333333335,33.41666666666667,2097.9166666666665,-271.0833333333333,2400,-204C2702.0833333333335,-136.91666666666669,3254.1666666666665,170,2650,400C2045.8333333333335,630,156.25,795.8333333333334,-500,900" transform="matrix(1,0,0,1,0,450)" opacity="0.68"></path><path d="M-10,10C242.08333333333331,24.166666666666668,697.9166666666666,122.58333333333333,1200,78C1702.0833333333335,33.41666666666667,2097.9166666666665,-271.0833333333333,2400,-204C2702.0833333333335,-136.91666666666669,3254.1666666666665,170,2650,400C2045.8333333333335,630,156.25,795.8333333333334,-500,900" transform="matrix(1,0,0,1,0,600)" opacity="1.00"></path></g></svg>