<?xml version="1.0" standalone="no"?>
<svg xmlns:xlink="http://www.w3.org/1999/xlink" id="wave" style="transform:rotate(0deg); transition: 0.3s" viewBox="0 0 1440 490" version="1.1" xmlns="http://www.w3.org/2000/svg"><defs><linearGradient id="sw-gradient-0" x1="0" x2="0" y1="1" y2="0"><stop stop-color="rgba(255, 255, 255, 1)" offset="0%"/><stop stop-color="rgba(250, 176, 227, 0.16)" offset="100%"/></linearGradient></defs><path style="transform:translate(0, 0px); opacity:1" fill="url(#sw-gradient-0)" d="M0,441L120,416.5C240,392,480,343,720,294C960,245,1200,196,1440,163.3C1680,131,1920,114,2160,163.3C2400,212,2640,327,2880,326.7C3120,327,3360,212,3600,171.5C3840,131,4080,163,4320,204.2C4560,245,4800,294,5040,334.8C5280,376,5520,408,5760,408.3C6000,408,6240,376,6480,334.8C6720,294,6960,245,7200,204.2C7440,163,7680,131,7920,163.3C8160,196,8400,294,8640,351.2C8880,408,9120,425,9360,424.7C9600,425,9840,408,10080,383.8C10320,359,10560,327,10800,294C11040,261,11280,229,11520,204.2C11760,180,12000,163,12240,147C12480,131,12720,114,12960,114.3C13200,114,13440,131,13680,179.7C13920,229,14160,310,14400,326.7C14640,343,14880,294,15120,277.7C15360,261,15600,278,15840,245C16080,212,16320,131,16560,122.5C16800,114,17040,180,17160,212.3L17280,245L17280,490L17160,490C17040,490,16800,490,16560,490C16320,490,16080,490,15840,490C15600,490,15360,490,15120,490C14880,490,14640,490,14400,490C14160,490,13920,490,13680,490C13440,490,13200,490,12960,490C12720,490,12480,490,12240,490C12000,490,11760,490,11520,490C11280,490,11040,490,10800,490C10560,490,10320,490,10080,490C9840,490,9600,490,9360,490C9120,490,8880,490,8640,490C8400,490,8160,490,7920,490C7680,490,7440,490,7200,490C6960,490,6720,490,6480,490C6240,490,6000,490,5760,490C5520,490,5280,490,5040,490C4800,490,4560,490,4320,490C4080,490,3840,490,3600,490C3360,490,3120,490,2880,490C2640,490,2400,490,2160,490C1920,490,1680,490,1440,490C1200,490,960,490,720,490C480,490,240,490,120,490L0,490Z"/><defs><linearGradient id="sw-gradient-1" x1="0" x2="0" y1="1" y2="0"><stop stop-color="rgba(47, 136, 192, 1)" offset="0%"/><stop stop-color="rgba(47, 136, 192, 1)" offset="100%"/></linearGradient></defs><path style="transform:translate(0, 50px); opacity:0.9" fill="url(#sw-gradient-1)" d="M0,0L120,73.5C240,147,480,294,720,367.5C960,441,1200,441,1440,367.5C1680,294,1920,147,2160,130.7C2400,114,2640,229,2880,269.5C3120,310,3360,278,3600,253.2C3840,229,4080,212,4320,196C4560,180,4800,163,5040,171.5C5280,180,5520,212,5760,245C6000,278,6240,310,6480,318.5C6720,327,6960,310,7200,261.3C7440,212,7680,131,7920,155.2C8160,180,8400,310,8640,302.2C8880,294,9120,147,9360,98C9600,49,9840,98,10080,138.8C10320,180,10560,212,10800,228.7C11040,245,11280,245,11520,236.8C11760,229,12000,212,12240,228.7C12480,245,12720,294,12960,334.8C13200,376,13440,408,13680,383.8C13920,359,14160,278,14400,253.2C14640,229,14880,261,15120,245C15360,229,15600,163,15840,147C16080,131,16320,163,16560,196C16800,229,17040,261,17160,277.7L17280,294L17280,490L17160,490C17040,490,16800,490,16560,490C16320,490,16080,490,15840,490C15600,490,15360,490,15120,490C14880,490,14640,490,14400,490C14160,490,13920,490,13680,490C13440,490,13200,490,12960,490C12720,490,12480,490,12240,490C12000,490,11760,490,11520,490C11280,490,11040,490,10800,490C10560,490,10320,490,10080,490C9840,490,9600,490,9360,490C9120,490,8880,490,8640,490C8400,490,8160,490,7920,490C7680,490,7440,490,7200,490C6960,490,6720,490,6480,490C6240,490,6000,490,5760,490C5520,490,5280,490,5040,490C4800,490,4560,490,4320,490C4080,490,3840,490,3600,490C3360,490,3120,490,2880,490C2640,490,2400,490,2160,490C1920,490,1680,490,1440,490C1200,490,960,490,720,490C480,490,240,490,120,490L0,490Z"/><defs><linearGradient id="sw-gradient-2" x1="0" x2="0" y1="1" y2="0"><stop stop-color="rgba(46, 87, 144, 1)" offset="0%"/><stop stop-color="rgba(46, 87, 144, 1)" offset="100%"/></linearGradient></defs><path style="transform:translate(0, 100px); opacity:0.8" fill="url(#sw-gradient-2)" d="M0,245L120,212.3C240,180,480,114,720,106.2C960,98,1200,147,1440,187.8C1680,229,1920,261,2160,261.3C2400,261,2640,229,2880,245C3120,261,3360,327,3600,318.5C3840,310,4080,229,4320,171.5C4560,114,4800,82,5040,73.5C5280,65,5520,82,5760,130.7C6000,180,6240,261,6480,253.2C6720,245,6960,147,7200,89.8C7440,33,7680,16,7920,24.5C8160,33,8400,65,8640,65.3C8880,65,9120,33,9360,40.8C9600,49,9840,98,10080,147C10320,196,10560,245,10800,236.8C11040,229,11280,163,11520,147C11760,131,12000,163,12240,179.7C12480,196,12720,196,12960,163.3C13200,131,13440,65,13680,89.8C13920,114,14160,229,14400,294C14640,359,14880,376,15120,318.5C15360,261,15600,131,15840,114.3C16080,98,16320,196,16560,236.8C16800,278,17040,261,17160,253.2L17280,245L17280,490L17160,490C17040,490,16800,490,16560,490C16320,490,16080,490,15840,490C15600,490,15360,490,15120,490C14880,490,14640,490,14400,490C14160,490,13920,490,13680,490C13440,490,13200,490,12960,490C12720,490,12480,490,12240,490C12000,490,11760,490,11520,490C11280,490,11040,490,10800,490C10560,490,10320,490,10080,490C9840,490,9600,490,9360,490C9120,490,8880,490,8640,490C8400,490,8160,490,7920,490C7680,490,7440,490,7200,490C6960,490,6720,490,6480,490C6240,490,6000,490,5760,490C5520,490,5280,490,5040,490C4800,490,4560,490,4320,490C4080,490,3840,490,3600,490C3360,490,3120,490,2880,490C2640,490,2400,490,2160,490C1920,490,1680,490,1440,490C1200,490,960,490,720,490C480,490,240,490,120,490L0,490Z"/></svg>