<svg xmlns="http://www.w3.org/2000/svg" version="1.1" xmlns:xlink="http://www.w3.org/1999/xlink" xmlns:svgjs="http://svgjs.dev/svgjs" viewBox="0 0 2400 800" opacity="1"><defs><linearGradient x1="50%" y1="0%" x2="50%" y2="100%" id="sssurf-grad"><stop stop-color="#2E5790" stop-opacity="1" offset="0%"></stop><stop stop-color="#388FC8" stop-opacity="1" offset="100%"></stop></linearGradient></defs><g fill="url(#sssurf-grad)" transform="matrix(1,0,0,1,-1.936279296875,-213.05069732666016)"><path d="M-10,10C158.75,38.958333333333336,464.58333333333337,165.66666666666666,800,149C1135.4166666666665,132.33333333333334,1266.6666666666665,-51.25,1600,-70C1933.3333333333335,-88.75,2181.25,-38.91666666666666,2400,59C2618.75,156.91666666666666,3254.1666666666665,224.79166666666669,2650,400C2045.8333333333335,575.2083333333333,156.25,795.8333333333334,-500,900" transform="matrix(1,0,0,1,0,150)" opacity="0.05"></path><path d="M-10,10C158.75,38.958333333333336,464.58333333333337,165.66666666666666,800,149C1135.4166666666665,132.33333333333334,1266.6666666666665,-51.25,1600,-70C1933.3333333333335,-88.75,2181.25,-38.91666666666666,2400,59C2618.75,156.91666666666666,3254.1666666666665,224.79166666666669,2650,400C2045.8333333333335,575.2083333333333,156.25,795.8333333333334,-500,900" transform="matrix(1,0,0,1,0,300)" opacity="0.21"></path><path d="M-10,10C158.75,38.958333333333336,464.58333333333337,165.66666666666666,800,149C1135.4166666666665,132.33333333333334,1266.6666666666665,-51.25,1600,-70C1933.3333333333335,-88.75,2181.25,-38.91666666666666,2400,59C2618.75,156.91666666666666,3254.1666666666665,224.79166666666669,2650,400C2045.8333333333335,575.2083333333333,156.25,795.8333333333334,-500,900" transform="matrix(1,0,0,1,0,450)" opacity="0.37"></path><path d="M-10,10C158.75,38.958333333333336,464.58333333333337,165.66666666666666,800,149C1135.4166666666665,132.33333333333334,1266.6666666666665,-51.25,1600,-70C1933.3333333333335,-88.75,2181.25,-38.91666666666666,2400,59C2618.75,156.91666666666666,3254.1666666666665,224.79166666666669,2650,400C2045.8333333333335,575.2083333333333,156.25,795.8333333333334,-500,900" transform="matrix(1,0,0,1,0,600)" opacity="0.53"></path><path d="M-10,10C158.75,38.958333333333336,464.58333333333337,165.66666666666666,800,149C1135.4166666666665,132.33333333333334,1266.6666666666665,-51.25,1600,-70C1933.3333333333335,-88.75,2181.25,-38.91666666666666,2400,59C2618.75,156.91666666666666,3254.1666666666665,224.79166666666669,2650,400C2045.8333333333335,575.2083333333333,156.25,795.8333333333334,-500,900" transform="matrix(1,0,0,1,0,750)" opacity="0.68"></path><path d="M-10,10C158.75,38.958333333333336,464.58333333333337,165.66666666666666,800,149C1135.4166666666665,132.33333333333334,1266.6666666666665,-51.25,1600,-70C1933.3333333333335,-88.75,2181.25,-38.91666666666666,2400,59C2618.75,156.91666666666666,3254.1666666666665,224.79166666666669,2650,400C2045.8333333333335,575.2083333333333,156.25,795.8333333333334,-500,900" transform="matrix(1,0,0,1,0,900)" opacity="0.84"></path><path d="M-10,10C158.75,38.958333333333336,464.58333333333337,165.66666666666666,800,149C1135.4166666666665,132.33333333333334,1266.6666666666665,-51.25,1600,-70C1933.3333333333335,-88.75,2181.25,-38.91666666666666,2400,59C2618.75,156.91666666666666,3254.1666666666665,224.79166666666669,2650,400C2045.8333333333335,575.2083333333333,156.25,795.8333333333334,-500,900" transform="matrix(1,0,0,1,0,1050)" opacity="1.00"></path></g></svg>